<svg width="39" height="29" viewBox="0 0 39 29" fill="none" xmlns="http://www.w3.org/2000/svg">
<path opacity="0.3" d="M17.2151 27.2273C16.5587 26.2767 16.4191 25.0614 16.843 23.9868L18.036 20.9627C18.7632 19.1193 20.0452 17.5474 21.7049 16.4646L25.6884 13.8656C27.0869 12.9531 28.6727 12.3667 30.3285 12.1498L35.0442 11.5321C36.2911 11.3687 37.5246 11.9167 38.2392 12.9515C39.6792 15.0367 38.375 17.9043 35.857 18.1893L32.2504 18.5976C31.179 18.7189 30.1665 19.1509 29.3376 19.8404L25.587 22.96C25.066 23.3934 24.6383 23.9279 24.3298 24.5313L23.1514 26.8358C21.9578 29.1699 18.7048 29.3844 17.2151 27.2273Z" fill="#2EC033"/>
<path opacity="0.3" d="M1.12229 26.3529C0.236106 25.0696 0.21371 23.378 1.06561 22.0717L4.82196 16.3119C5.86322 14.7153 7.21769 13.3466 8.80335 12.2888L18.9068 5.54839C20.2423 4.65741 21.6992 3.96339 23.2326 3.48771L32.3492 0.659576C33.9064 0.176485 35.597 0.760855 36.5235 2.1025C37.965 4.1899 36.9472 7.07627 34.5152 7.79784L25.0629 10.6023C23.7706 10.9858 22.5608 11.606 21.495 12.4315L14.0603 18.1906C13.3851 18.7136 12.7817 19.3232 12.2655 20.0036L7.34351 26.4917C5.76309 28.575 2.60823 28.5046 1.12229 26.3529Z" fill="#2EC033"/>
</svg>
