<?xml version="1.0" encoding="utf-8"?>
<!-- Generator: Adobe Illustrator 16.0.0, SVG Export Plug-In . SVG Version: 6.00 Build 0)  -->
<!DOCTYPE svg PUBLIC "-//W3C//DTD SVG 1.1//EN" "http://www.w3.org/Graphics/SVG/1.1/DTD/svg11.dtd">
<svg version="1.1" id="Layer_1" xmlns="http://www.w3.org/2000/svg" xmlns:xlink="http://www.w3.org/1999/xlink" x="0px" y="0px"
	 width="481.954px" height="106.091px" viewBox="0 0 481.954 106.091" enable-background="new 0 0 481.954 106.091"
	 xml:space="preserve">
<g>
	<g>
		<g>
			<path fill="#D0D2D3" d="M479.371,0v0.335h-0.652v1.688h-0.398V0.335h-0.646V0H479.371z M481.555,2.023l-0.076-1.19
				c-0.012-0.155-0.012-0.348-0.012-0.563h-0.025c-0.051,0.177-0.107,0.415-0.171,0.602l-0.361,1.121h-0.417l-0.367-1.149
				c-0.039-0.158-0.096-0.396-0.14-0.573h-0.026c0,0.187,0,0.38-0.013,0.563l-0.075,1.19h-0.387L479.637,0h0.602l0.348,0.991
				c0.045,0.155,0.082,0.304,0.133,0.513h0.007c0.051-0.187,0.095-0.358,0.146-0.506L481.221,0h0.581l0.152,2.023H481.555z"/>
		</g>
		<path fill="#94D62B" d="M405.623,18.711L405.623,18.711c-1.482-2.675-2.501-5.55-3.191-8.219C400.957,4.787,400.95,0,400.95,0
			l-36.321,10.492c0,0,20.371,32.104,58.66,32.104c17.686,0,31.539-6.845,41.342-14.215
			C423.289,53.792,405.623,18.711,405.623,18.711z"/>
		<path fill="#94D62B" d="M464.643,28.374L464.643,28.374c-0.006,0-0.012,0.003-0.012,0.006
			C464.631,28.376,464.643,28.374,464.643,28.374z"/>
		<linearGradient id="SVGID_1_" gradientUnits="userSpaceOnUse" x1="405.4424" y1="34.1382" x2="462.9676" y2="11.8391">
			<stop  offset="0" style="stop-color:#445F3D"/>
			<stop  offset="1" style="stop-color:#00BB49"/>
		</linearGradient>
		<path fill="url(#SVGID_1_)" d="M445.635,0c0,0-0.007,4.787-1.488,10.492c-1.166,4.521-3.268,9.625-7.022,13.374
			c-3.235,3.226-7.687,5.448-13.835,5.448c-9.074,0-14.469-4.847-17.666-10.603l0,0c0,0,17.666,35.082,59.008,9.669
			c0-0.003,0.006-0.006,0.012-0.006c11.41-8.589,17.312-17.882,17.312-17.882L445.635,0z"/>
	</g>
	<g>
		<path fill="#202020" d="M5.705,100.408C1.899,96.692,0,91.284,0,84.186c0-4.217,0.627-8.203,1.875-11.958
			c1.246-3.755,3.007-7.051,5.273-9.897c2.26-2.849,5.123-5.101,8.586-6.766c3.465-1.659,7.27-2.492,11.416-2.492
			c4.116,0,7.801,0.744,11.057,2.235c3.261,1.495,5.813,3.61,7.662,6.354l-9.049,6.734c-2.166-3.22-5.465-4.834-9.929-4.834
			c-2.229,0-4.294,0.517-6.192,1.545c-1.906,1.026-3.515,2.425-4.838,4.192c-1.316,1.763-2.344,3.847-3.084,6.246
			c-0.74,2.4-1.107,4.955-1.107,7.666c0,1.437,0.133,2.773,0.385,4.011c0.261,1.232,0.621,2.286,1.078,3.16
			c0.469,0.874,1.007,1.646,1.627,2.314c0.613,0.672,1.311,1.21,2.082,1.622c0.773,0.411,1.559,0.712,2.362,0.899
			c0.804,0.187,1.653,0.282,2.546,0.282c0.722,0,1.457-0.066,2.21-0.202c0.753-0.139,1.538-0.346,2.343-0.618
			c0.811-0.275,1.602-0.626,2.387-1.054c0.791-0.431,1.59-0.952,2.394-1.566c0.804-0.621,1.57-1.305,2.292-2.059l9.043,6.528
			c-2.977,3.122-6.154,5.48-9.537,7.073c-3.374,1.592-7.236,2.39-11.594,2.39C14.702,105.99,9.51,104.128,5.705,100.408z"/>
		<path fill="#202020" d="M83.296,53.125l-1.589,13.168c-2.539-0.45-4.869-0.285-6.99,0.487c-2.134,0.772-3.958,2.052-5.459,3.831
			c-1.506,1.783-2.76,3.958-3.754,6.532c-0.994,2.57-1.717,5.467-2.166,8.69l-2.406,19.439H49.408l6.325-51.374H67.25l-1.132,9.257
			h0.259C71.215,56.535,76.856,53.195,83.296,53.125z"/>
		<path fill="#202020" d="M110.023,94.187c1.817-0.874,3.666-2.27,5.56-4.188l9.048,6.528c-2.128,2.163-4.128,3.895-5.99,5.192
			c-1.868,1.307-4.083,2.343-6.636,3.115c-2.552,0.77-5.407,1.155-8.56,1.155c-4.256,0-7.947-0.852-11.082-2.545
			c-3.141-1.697-5.553-4.16-7.256-7.38c-1.691-3.223-2.539-7.044-2.539-11.467c0-3.359,0.373-6.595,1.127-9.694
			c0.754-3.103,1.893-5.971,3.42-8.611c1.525-2.641,3.361-4.949,5.502-6.918c2.14-1.969,4.66-3.518,7.56-4.629
			c2.894-1.114,6.022-1.671,9.384-1.671c2.92,0,5.611,0.525,8.073,1.57c2.47,1.044,4.495,2.646,6.066,4.806
			c1.583,2.159,2.368,4.682,2.368,7.563c0,2.533-0.588,4.867-1.772,6.991c-1.185,2.125-2.755,3.932-4.705,5.426
			c-1.957,1.491-4.312,2.821-7.073,3.983c-2.76,1.168-5.609,2.093-8.561,2.776c-2.95,0.687-6.123,1.238-9.517,1.646l-0.151,0.104
			c0.41,1.646,1.114,3.052,2.108,4.217c0.993,1.169,2.126,2.014,3.394,2.549c1.273,0.525,2.621,0.792,4.065,0.792
			C106.148,95.498,108.206,95.064,110.023,94.187z M105.604,64.08c-1.127,0.341-2.273,0.883-3.419,1.621
			c-1.146,0.734-2.203,1.656-3.166,2.751c-0.963,1.095-1.829,2.444-2.621,4.04c-0.792,1.589-1.387,3.362-1.798,5.319l0.1,0.155
			c1.717-0.237,3.344-0.509,4.889-0.801c1.539-0.289,3.071-0.653,4.604-1.077c1.521-0.43,2.887-0.924,4.084-1.494
			c1.203-0.563,2.267-1.188,3.191-1.874c0.924-0.688,1.646-1.466,2.152-2.34c0.52-0.874,0.779-1.808,0.779-2.805
			c0-0.855-0.203-1.577-0.62-2.16c-0.412-0.583-1.019-1.035-1.823-1.361s-1.793-0.491-2.957-0.491
			C107.864,63.563,106.73,63.734,105.604,64.08z"/>
		<path fill="#202020" d="M147.299,106.091c-11.93,0-16.938-7.561-15.012-22.678l3.697-29.516h11.523l-3.552,28.541
			c-0.545,4.625-0.487,7.969,0.184,10.03c0.665,2.055,2.147,3.084,4.444,3.084c0.963,0,1.971-0.215,3.009-0.643
			c1.044-0.431,2.121-1.08,3.217-1.953c1.101-0.877,2.159-2.026,3.185-3.448c1.031-1.422,1.988-3.049,2.855-4.885
			c0.873-1.833,1.641-4.021,2.285-6.557c0.653-2.536,1.121-5.262,1.394-8.178c0.411-4.587,0.203-9.925-0.62-15.991h11.732
			c0.887,4.933,1.16,9.891,0.817,14.861c-0.343,5.21-1.14,9.931-2.394,14.167c-1.247,4.233-2.799,7.772-4.654,10.618
			c-1.849,2.843-3.982,5.221-6.401,7.124c-2.413,1.903-4.927,3.284-7.528,4.141C152.871,105.664,150.148,106.091,147.299,106.091z"
			/>
		<path fill="#202020" d="M232.09,53.897l-6.326,51.374h-11.517l1.234-9.82h-0.209c-2.368,3.495-5.002,6.142-7.921,7.94
			c-2.913,1.802-5.826,2.701-8.745,2.701c-2.937,0-5.565-0.538-7.856-1.621c-2.307-1.08-4.154-2.578-5.566-4.499
			c-1.399-1.918-2.457-4.119-3.154-6.604c-0.702-2.489-1.057-5.205-1.057-8.156c0-3.22,0.379-6.398,1.133-9.536
			c0.754-3.138,1.869-6.06,3.344-8.77c1.469-2.707,3.211-5.097,5.211-7.171c2.008-2.077,4.363-3.701,7.048-4.885
			c2.69-1.187,5.533-1.776,8.511-1.776c5.697,0,10.199,1.608,13.524,4.834h0.36l0.463-4.011H232.09z M205.191,94.805
			c1.477-0.737,2.919-1.827,4.318-3.267c1.412-1.438,2.711-3.153,3.914-5.142c1.196-1.985,2.241-4.318,3.135-6.991
			c0.893-2.678,1.537-5.502,1.956-8.488l0.253-2.415c-1.032-1.029-2.197-1.919-3.52-2.673c-1.324-0.753-2.686-1.33-4.092-1.726
			c-1.405-0.396-2.76-0.592-4.052-0.592c-2.203,0-4.224,0.652-6.078,1.954c-1.851,1.305-3.362,3.008-4.546,5.119
			c-1.18,2.105-2.116,4.448-2.781,7.02c-0.67,2.57-1,5.176-1,7.813c0,2.128,0.304,3.97,0.925,5.531
			c0.614,1.561,1.538,2.773,2.779,3.65c1.229,0.877,2.724,1.313,4.47,1.313C202.279,95.913,203.717,95.545,205.191,94.805z"/>
		<path fill="#202020" d="M284.531,58.32c2.025,3.495,2.559,8.811,1.596,15.94l-4.218,31.01h-11.523l4.065-30.035
			c0.55-3.938,0.475-6.873-0.234-8.792c-0.697-1.918-2.268-2.881-4.699-2.881c-1.582,0-3.292,0.573-5.147,1.726
			c-1.849,1.146-3.628,2.685-5.345,4.6c-1.716,1.921-3.235,4.315-4.553,7.174c-1.316,2.861-2.196,5.837-2.646,8.921l-2.368,19.287
			h-11.517l6.318-51.374h11.524l-1.077,8.947h0.203c5.28-6.516,11.448-9.771,18.508-9.771
			C278.801,53.074,282.512,54.822,284.531,58.32z"/>
		<path fill="#202020" d="M299.437,100.408c-3.806-3.716-5.711-9.124-5.711-16.222c0-4.217,0.626-8.203,1.88-11.958
			c1.248-3.755,3.008-7.051,5.27-9.897c2.266-2.849,5.127-5.101,8.585-6.766c3.464-1.659,7.269-2.492,11.417-2.492
			c4.115,0,7.801,0.744,11.062,2.235c3.248,1.495,5.806,3.61,7.661,6.354l-9.055,6.734c-2.158-3.22-5.464-4.834-9.922-4.834
			c-2.235,0-4.293,0.517-6.199,1.545c-1.906,1.026-3.514,2.425-4.831,4.192c-1.323,1.763-2.349,3.847-3.089,6.246
			c-0.735,2.4-1.109,4.955-1.109,7.666c0,1.437,0.133,2.773,0.387,4.011c0.26,1.232,0.621,2.286,1.082,3.16
			c0.463,0.874,1.007,1.646,1.621,2.314c0.614,0.672,1.311,1.21,2.084,1.622c0.771,0.411,1.557,0.712,2.361,0.899
			c0.804,0.187,1.66,0.282,2.546,0.282c0.722,0,1.462-0.066,2.216-0.202c0.754-0.139,1.533-0.346,2.337-0.618
			c0.81-0.275,1.601-0.626,2.394-1.054c0.784-0.431,1.588-0.952,2.393-1.566c0.799-0.621,1.564-1.305,2.286-2.059l9.049,6.528
			c-2.982,3.122-6.161,5.48-9.536,7.073c-3.376,1.592-7.244,2.39-11.594,2.39C308.435,105.99,303.242,104.128,299.437,100.408z"/>
		<path fill="#202020" d="M370.335,94.187c1.817-0.874,3.666-2.27,5.553-4.188l9.056,6.528c-2.121,2.163-4.116,3.895-5.996,5.192
			c-1.863,1.307-4.078,2.343-6.631,3.115c-2.558,0.77-5.407,1.155-8.561,1.155c-4.248,0-7.946-0.852-11.081-2.545
			c-3.14-1.697-5.552-4.16-7.249-7.38c-1.705-3.223-2.547-7.044-2.547-11.467c0-3.359,0.374-6.595,1.129-9.694
			c0.752-3.103,1.898-5.971,3.424-8.611c1.521-2.641,3.356-4.949,5.497-6.918c2.14-1.969,4.661-3.518,7.56-4.629
			c2.895-1.114,6.029-1.671,9.385-1.671c2.912,0,5.609,0.525,8.072,1.57c2.471,1.044,4.496,2.646,6.073,4.806
			c1.576,2.159,2.362,4.682,2.362,7.563c0,2.533-0.596,4.867-1.773,6.991c-1.185,2.125-2.748,3.932-4.705,5.426
			c-1.957,1.491-4.312,2.821-7.066,3.983c-2.76,1.168-5.616,2.093-8.566,2.776c-2.945,0.687-6.117,1.238-9.512,1.646l-0.15,0.104
			c0.41,1.646,1.107,3.052,2.102,4.217c0.994,1.169,2.127,2.014,3.387,2.549c1.279,0.525,2.629,0.792,4.072,0.792
			C366.467,95.498,368.523,95.064,370.335,94.187z M365.915,64.08c-1.134,0.341-2.267,0.883-3.419,1.621
			c-1.152,0.734-2.203,1.656-3.166,2.751c-0.956,1.095-1.83,2.444-2.621,4.04c-0.785,1.589-1.387,3.362-1.799,5.319l0.107,0.155
			c1.711-0.237,3.338-0.509,4.877-0.801c1.551-0.289,3.082-0.653,4.608-1.077c1.526-0.43,2.882-0.924,4.085-1.494
			c1.202-0.563,2.26-1.188,3.19-1.874c0.925-0.688,1.641-1.466,2.159-2.34c0.514-0.874,0.773-1.808,0.773-2.805
			c0-0.855-0.209-1.577-0.621-2.16s-1.014-1.035-1.824-1.361s-1.785-0.491-2.957-0.491C368.176,63.563,367.049,63.734,365.915,64.08
			z"/>
	</g>
</g>
</svg>
