<?xml version="1.0" encoding="UTF-8"?> <svg xmlns="http://www.w3.org/2000/svg" xmlns:xlink="http://www.w3.org/1999/xlink" width="183px" height="44px" viewBox="0 0 183 44"><!-- Generator: Sketch 51.3 (57544) - http://www.bohemiancoding.com/sketch --><title>Group 17</title><desc>Created with Sketch.</desc><defs><polygon id="path-1" points="0 43.2062762 182.989292 43.2062762 182.989292 0.207104464 0 0.207104464"></polygon><path d="M21.4995858,0.207104464 C14.8008277,0.207104464 8.81943649,3.27082223 4.8762389,8.07136088 C1.8300179,11.7817445 0,16.5322924 0,21.7091899 C0,26.8857302 1.8300179,31.6341357 4.8762389,35.3420197 C8.81943649,40.145415 14.8008277,43.2062762 21.4995858,43.2062762 C26.004465,43.2062762 30.1836903,41.8197475 33.638407,39.4509009 C39.2912876,35.5801899 42.9991717,29.0771097 42.9991717,21.7091899 C42.9991717,14.3387705 39.2912876,7.83319075 33.638407,3.96247972 C30.1836903,1.59363314 26.004465,0.207104464 21.4995858,0.207104464 Z M14.783688,16.6951194 C14.783688,14.8551033 15.6585258,13.4839289 17.5585307,12.6790781 L29.441685,7.83069121 L29.441685,10.7062296 C29.441685,12.2377314 28.919996,13.9574126 26.5058007,14.8201098 L18.1627044,18.1869857 C16.7565365,18.7736626 15.4203557,19.9020249 16.1723591,20.7140172 C14.4926705,19.5431628 14.783688,16.6951194 14.783688,16.6951194 Z M14.783688,27.7559261 C14.783688,25.2142544 16.4730177,23.6370468 18.8850705,22.8022015 L23.1242847,21.1375101 C24.6107948,20.5133401 25.8666334,19.4253275 25.1121304,18.6133352 C26.2479913,19.3878345 26.4958025,20.5333364 26.4958025,22.4890453 C26.4958025,24.0230466 25.9444761,25.4270721 23.5627748,26.5375805 L20.494415,27.9012563 L20.494415,29.4659662 C20.5469053,32.3886387 19.6170777,33.6344791 17.6188767,34.4318313 L14.8008277,35.5876885 L14.8008277,33.2059872 C14.8008277,33.1834913 14.8036843,33.163495 14.8061838,33.1409992 C14.8036843,33.1559964 14.8008277,33.1709936 14.8008277,33.1834913 L14.8008277,33.2059872 C14.78833,33.3466754 14.783688,33.4841499 14.783688,33.6248381 L14.783688,27.7559261 Z" id="path-3"></path><linearGradient x1="50.0000183%" y1="-3.64557382e-05%" x2="50.0000183%" y2="100%" id="linearGradient-5"><stop stop-color="#93D802" offset="0%"></stop><stop stop-color="#04B648" offset="100%"></stop></linearGradient></defs><g id="Welcome" stroke="none" stroke-width="1" fill="none" fill-rule="evenodd"><g id="Home" transform="translate(-130.000000, -41.000000)"><g id="Group-17" transform="translate(130.000000, 41.000000)"><polygon id="Fill-1" fill="#222233" points="55.8772844 7.86996964 75.3254648 7.86996964 75.3254648 12.878684 61.5630161 12.878684 61.5630161 20.685094 71.8511089 20.685094 71.8511089 25.7388 61.5630161 25.7388 61.5630161 37.9676044 55.8772844 37.9676044"></polygon><g id="Group-13" transform="translate(0.000000, 0.149972)"><path d="M75.0549792,16.6545912 L80.3797064,16.6545912 L80.3797064,29.4697155 C80.3797064,30.8233931 80.7474954,31.8689136 81.4852158,32.6055627 C82.2218649,33.3432831 83.1774021,33.7114292 84.3503989,33.7114292 C85.0724079,33.7114292 85.7494253,33.5689556 86.3810939,33.2825801 C87.0127625,32.9969188 87.5540907,32.5987783 88.0054356,32.0867304 C88.4567805,31.5757537 88.8099293,30.981221 89.0659533,30.3045607 C89.3212631,29.6275434 89.4494536,28.8987499 89.4494536,28.1160379 L89.4494536,16.6545912 L94.7741808,16.6545912 L94.7741808,37.8174537 L89.6751261,37.8174537 L89.539437,35.4257542 C89.2687728,35.7271269 88.9374057,36.0427827 88.5471209,36.3734357 C88.1554078,36.7048028 87.70442,37.01296 87.1930862,37.2986213 C86.6813953,37.5849968 86.0947184,37.8174537 85.4334124,37.9977774 C84.7713923,38.1784582 84.0190318,38.2687986 83.1774021,38.2687986 C80.5296786,38.2687986 78.5139808,37.478945 77.1306659,35.899595 C75.7466367,34.320602 75.0549792,32.192425 75.0549792,29.5147072 L75.0549792,16.6545912 Z" id="Fill-2" fill="#222233"></path><path d="M98.8800982,16.6545912 L103.979153,16.6545912 L104.114485,19.0459336 C104.385149,18.7456321 104.707946,18.4299763 105.084305,18.0982521 C105.460307,17.7679562 105.911652,17.459799 106.43834,17.1734235 C106.964314,16.8877622 107.558489,16.6545912 108.22051,16.4739104 C108.881816,16.2935866 109.634176,16.2032463 110.476877,16.2032463 C113.123529,16.2032463 115.139227,16.9930998 116.523256,18.5724499 C117.906571,20.1514429 118.598943,22.2799769 118.598943,24.9573377 L118.598943,37.8174537 L113.274573,37.8174537 L113.274573,25.0023294 C113.274573,23.6486517 112.905712,22.6038454 112.169063,21.8664821 C111.431343,21.1294759 110.476877,20.7609728 109.303523,20.7609728 C108.581514,20.7609728 107.904854,20.9038034 107.272828,21.1894648 C106.64116,21.4754832 106.099831,21.8739807 105.648486,22.3853145 C105.197141,22.8970054 104.843279,23.4908239 104.587969,24.1678412 C104.332302,24.8445015 104.204825,25.5740091 104.204825,26.356007 L104.204825,37.8174537 L98.8800982,37.8174537 L98.8800982,16.6545912 Z" id="Fill-4" fill="#222233"></path><path d="M137.234774,21.9340053 C136.722726,21.5130119 136.129264,21.219852 135.452604,21.0541684 C134.775587,20.889199 133.91039,20.8060001 132.857728,20.8060001 C131.804352,20.8060001 130.932371,21.0088197 130.240713,21.4151729 C129.548342,21.8211691 128.947024,22.3557129 128.435691,23.0170188 C127.984346,23.6190501 127.630483,24.3185633 127.37553,25.1152013 C127.119506,25.9125535 126.991673,26.7473987 126.991673,27.6193799 C126.991673,29.4244025 127.443018,30.9291235 128.34535,32.1321148 C129.24804,33.3354632 130.556369,33.9367803 132.271408,33.9367803 C133.173741,33.9367803 133.940742,33.7639551 134.57241,33.4179479 C135.204079,33.0722977 135.715413,32.6280943 136.106769,32.0867661 C136.49741,31.5454378 136.783429,30.9516194 136.96411,30.3042394 C137.14479,29.6579306 137.234774,29.0337606 137.234774,28.4317293 L137.234774,21.9340053 Z M137.234774,35.7418028 C136.96411,36.0428184 136.632743,36.3584742 136.242101,36.6894842 C135.850745,37.0204943 135.391901,37.3211529 134.865927,37.591817 C134.339239,37.8624811 133.752562,38.0881535 133.105896,38.2688343 C132.458873,38.449158 131.729723,38.5394984 130.917731,38.5394984 C129.774014,38.5394984 128.645652,38.2984717 127.533358,37.8174894 C126.419993,37.3365072 125.42732,36.6294954 124.554982,35.696454 C123.682286,34.764484 122.975631,33.6207674 122.434303,32.2670898 C121.892975,30.9134121 121.621954,29.3647707 121.621954,27.6193799 C121.621954,25.9654008 121.862623,24.5138842 122.343963,23.2651871 C122.824945,22.0172042 123.426976,20.9566865 124.148985,20.0839911 C124.750302,19.3619821 125.41268,18.760665 126.134332,18.2789686 C126.856341,17.7979863 127.585491,17.3991317 128.322854,17.0831189 C129.059504,16.7674631 129.774014,16.5417906 130.466386,16.4064586 C131.158043,16.2711265 131.75936,16.203282 132.271408,16.203282 C132.963066,16.203282 133.534745,16.2257778 133.985733,16.2711265 C134.437078,16.3161182 134.843431,16.3768212 135.204079,16.4514502 C135.56544,16.5267934 135.895736,16.6249895 136.197109,16.7446102 C136.49741,16.8653021 136.843418,17.0006341 137.234774,17.1509634 L137.234774,7.71985461 L142.514152,7.71985461 L142.514152,37.8174894 L137.370106,37.8174894 L137.234774,35.7418028 Z" id="Fill-6" fill="#222233"></path><path d="M159.119503,28.2511914 C158.577817,28.221554 158.051129,28.1915596 157.540152,28.1612081 C157.118445,28.1315707 156.674956,28.1090749 156.208971,28.0933635 C155.742271,28.0787234 155.343774,28.0708677 155.013121,28.0708677 C153.298439,28.0708677 152.09509,28.4090193 151.403433,29.0860366 C150.711061,29.7626969 150.365411,30.5379103 150.365411,31.4098915 C150.365411,32.3125813 150.688565,33.0195931 151.335588,33.5309269 C151.982254,34.0426178 152.937434,34.2979276 154.201129,34.2979276 C154.832797,34.2979276 155.44197,34.192947 156.02829,33.9819147 C156.614967,33.7719537 157.133799,33.4855782 157.585144,33.1245737 C158.036489,32.7635692 158.404635,32.3425758 158.690653,31.8612364 C158.976315,31.3802542 159.119503,30.8685633 159.119503,30.326878 L159.119503,28.2511914 Z M159.119503,35.8319289 C158.547466,36.5243006 157.675485,37.1406149 156.502131,37.6823002 C155.329134,38.2236284 154.020448,38.4942925 152.57643,38.4942925 C151.703734,38.4942925 150.839252,38.3589605 149.981911,38.0882964 C149.12457,37.8176323 148.341858,37.4041375 147.63556,36.847455 C146.928191,36.2911295 146.356511,35.5769762 145.920878,34.7039238 C145.484173,33.8315855 145.266713,32.8089179 145.266713,31.635564 C145.266713,30.4325727 145.492029,29.3567007 145.943374,28.4090193 C146.394719,27.4616949 147.026387,26.6650568 147.83838,26.0176769 C148.650729,25.371011 149.628048,24.8825302 150.771764,24.551163 C151.91441,24.22051 153.177747,24.0548264 154.561776,24.0548264 C154.982769,24.0548264 155.448754,24.0626821 155.960802,24.0773223 C156.471779,24.0926766 156.968473,24.1151724 157.449812,24.1448098 C157.99114,24.1751613 158.547466,24.2055128 159.119503,24.2351502 L159.119503,23.7388136 C159.119503,22.6865087 158.697795,21.859162 157.855808,21.2571308 C157.013464,20.6558137 155.915454,20.3547981 154.561776,20.3547981 C153.057412,20.3547981 151.854421,20.5508332 150.952088,20.9411179 C150.049755,21.332474 149.252046,21.7534674 148.560389,22.2048123 L146.123697,18.5947672 C146.544691,18.2944657 147.026387,17.9855944 147.567715,17.6699386 C148.109401,17.3539258 148.741069,17.0682645 149.463078,16.8125976 C150.185087,16.5572878 151.019576,16.3466125 151.967257,16.1805719 C152.914938,16.0156025 154.020448,15.9324036 155.283785,15.9324036 C156.637463,15.9324036 157.86295,16.1209401 158.961675,16.4965847 C160.059328,16.8729435 160.999154,17.3989175 161.781866,18.0759348 C162.563864,18.7525951 163.165181,19.5649445 163.586532,20.512626 C164.007525,21.4599503 164.2182,22.4908307 164.2182,23.6034815 L164.2182,37.8176323 L159.254835,37.8176323 L159.119503,35.8319289 Z" id="Fill-8" fill="#222233"></path><mask id="mask-2" fill="white"><use xlink:href="#path-1"></use></mask><g id="Clip-11"></g><polygon id="Fill-10" fill="#222233" mask="url(#mask-2)" points="168.234527 37.8176323 173.559254 37.8176323 173.559254 7.71999744 168.234527 7.71999744"></polygon><polygon id="Fill-12" fill="#222233" mask="url(#mask-2)" points="177.664922 37.8176323 182.989649 37.8176323 182.989649 7.71999744 177.664922 7.71999744"></polygon></g><g id="Group-16" transform="translate(0.000000, 0.149972)"><mask id="mask-4" fill="white"><use xlink:href="#path-3"></use></mask><g id="Clip-15"></g><path d="M21.4995858,0.207104464 C14.8008277,0.207104464 8.81943649,3.27082223 4.8762389,8.07136088 C1.8300179,11.7817445 0,16.5322924 0,21.7091899 C0,26.8857302 1.8300179,31.6341357 4.8762389,35.3420197 C8.81943649,40.145415 14.8008277,43.2062762 21.4995858,43.2062762 C26.004465,43.2062762 30.1836903,41.8197475 33.638407,39.4509009 C39.2912876,35.5801899 42.9991717,29.0771097 42.9991717,21.7091899 C42.9991717,14.3387705 39.2912876,7.83319075 33.638407,3.96247972 C30.1836903,1.59363314 26.004465,0.207104464 21.4995858,0.207104464 Z M14.783688,16.6951194 C14.783688,14.8551033 15.6585258,13.4839289 17.5585307,12.6790781 L29.441685,7.83069121 L29.441685,10.7062296 C29.441685,12.2377314 28.919996,13.9574126 26.5058007,14.8201098 L18.1627044,18.1869857 C16.7565365,18.7736626 15.4203557,19.9020249 16.1723591,20.7140172 C14.4926705,19.5431628 14.783688,16.6951194 14.783688,16.6951194 Z M14.783688,27.7559261 C14.783688,25.2142544 16.4730177,23.6370468 18.8850705,22.8022015 L23.1242847,21.1375101 C24.6107948,20.5133401 25.8666334,19.4253275 25.1121304,18.6133352 C26.2479913,19.3878345 26.4958025,20.5333364 26.4958025,22.4890453 C26.4958025,24.0230466 25.9444761,25.4270721 23.5627748,26.5375805 L20.494415,27.9012563 L20.494415,29.4659662 C20.5469053,32.3886387 19.6170777,33.6344791 17.6188767,34.4318313 L14.8008277,35.5876885 L14.8008277,33.2059872 C14.8008277,33.1834913 14.8036843,33.163495 14.8061838,33.1409992 C14.8036843,33.1559964 14.8008277,33.1709936 14.8008277,33.1834913 L14.8008277,33.2059872 C14.78833,33.3466754 14.783688,33.4841499 14.783688,33.6248381 L14.783688,27.7559261 Z" id="Fill-14" fill="url(#linearGradient-5)" mask="url(#mask-4)"></path></g></g></g></g></svg> 