<svg width="17" height="19" viewBox="0 0 17 19" fill="none" xmlns="http://www.w3.org/2000/svg">
<path fill-rule="evenodd" clip-rule="evenodd" d="M15.8491 13.7887V16.3601C15.8508 16.8428 15.6752 17.3039 15.3653 17.6303C15.0555 17.9566 14.6402 18.1178 14.2214 18.0744C11.9239 17.7878 9.71701 16.8865 7.77801 15.4429C5.97402 14.1269 4.44455 12.3711 3.29822 10.3001C2.0364 8.06397 1.25114 5.51808 1.00607 2.86866C0.968341 2.3894 1.10781 1.91401 1.39041 1.55862C1.673 1.20322 2.0727 1.00054 2.49186 1.00008H4.73175C5.48127 0.991616 6.12011 1.62234 6.22501 2.47437C6.31955 3.29728 6.49488 4.10528 6.74766 4.88294C6.95278 5.50941 6.82158 6.21563 6.41167 6.69151L5.46345 7.78008C6.52632 9.92598 8.07401 11.7028 9.94324 12.9229L10.8915 11.8344C11.306 11.3638 11.9212 11.2132 12.4668 11.4487C13.1442 11.7388 13.8481 11.9401 14.5649 12.0487C15.3157 12.1703 15.8679 12.9185 15.8491 13.7887V13.7887Z" stroke="#C1C7C4" stroke-width="1.3" stroke-linecap="round" stroke-linejoin="round"/>
</svg>
