<svg width="15" height="17" viewBox="0 0 15 17" fill="none" xmlns="http://www.w3.org/2000/svg">
<path fill-rule="evenodd" clip-rule="evenodd" d="M13.9708 17.0001V15.2223C13.9708 13.2586 12.519 11.6667 10.7281 11.6667H4.24269C2.4518 11.6667 1 13.2586 1 15.2223V17.0001" fill="#C1C7C4"/>
<path d="M13.9708 17.0001V15.2223C13.9708 13.2586 12.519 11.6667 10.7281 11.6667H4.24269C2.4518 11.6667 1 13.2586 1 15.2223V17.0001" stroke="#C1C7C4" stroke-width="2" stroke-linejoin="round"/>
<path fill-rule="evenodd" clip-rule="evenodd" d="M7.48537 8.11111C9.27626 8.11111 10.7281 6.51923 10.7281 4.55556C10.7281 2.59188 9.27626 1 7.48537 1C5.69448 1 4.24268 2.59188 4.24268 4.55556C4.24268 6.51923 5.69448 8.11111 7.48537 8.11111Z" fill="#C1C7C4" stroke="#C1C7C4" stroke-width="2" stroke-linecap="round" stroke-linejoin="round"/>
</svg>
